<svg xmlns="http://www.w3.org/2000/svg" fill="none" style="display: none;">
  <symbol id="icon-contacts-mobile" viewBox="0 0 36 34">
    <path fill-rule="evenodd" clip-rule="evenodd" d="M18 2.17236C12.4071 2.17236 6.80078 3.1177 4.76656 5.00191C3.07881 6.5651 2.5162 9.32664 2.32655 11.0751C2.32655 11.0751 2.30042 11.2479 2.30042 11.3222C2.30042 12.0079 2.88902 12.5578 3.60866 12.5578C3.69369 12.5578 6.84016 12.3168 8.73714 12.1686C8.78279 12.1623 8.8288 12.1562 8.87445 12.1439C9.58098 12.1255 10.1502 11.5817 10.1502 10.9083L10.1566 8.47406C10.1566 7.72035 10.8044 7.11481 11.6025 7.11481H24.3974C25.1957 7.11481 25.8436 7.72028 25.8436 8.47406L25.85 10.9083C25.85 11.5817 26.4192 12.1255 27.1257 12.1439C27.171 12.1563 27.217 12.1623 27.2632 12.1686C29.1603 12.3167 32.3067 12.5578 32.3915 12.5578C33.1108 12.5578 33.6998 12.0079 33.6998 11.3222C33.6998 11.2479 33.6737 11.0751 33.6737 11.0751C33.4839 9.32664 32.922 6.56516 31.2341 5.00191C29.1993 3.1177 23.5929 2.17236 18 2.17236ZM18 18.2355C16.5543 18.2355 15.3834 19.3413 15.3834 20.7067C15.3834 22.0721 16.5543 23.1778 18 23.1778C19.4457 23.1778 20.6166 22.0721 20.6166 20.7067C20.6166 19.3413 19.4457 18.2355 18 18.2355ZM16.0376 12.6751V11.1306C16.0376 10.2781 15.3048 9.58613 14.4023 9.58613C13.4997 9.58613 12.7669 10.2782 12.7669 11.1306V12.6751L3.94202 21.5779C3.3339 22.1402 2.95439 22.9245 2.95439 23.7897V26.2671C2.95439 27.6325 4.1254 28.7383 5.57102 28.7383H6.22521V30.2829C6.22521 31.1354 6.95802 31.8273 7.86062 31.8273C8.76321 31.8273 9.49595 31.1354 9.49595 30.2829V28.7383H26.5041V30.2829C26.5041 31.1354 27.2366 31.8273 28.1396 31.8273C29.0422 31.8273 29.7748 31.1354 29.7748 30.2829V28.7383H30.4289C31.8746 28.7383 33.0455 27.6325 33.0455 26.2671V23.7897C33.0455 22.9245 32.6661 22.1401 32.0579 21.5779L23.2333 12.6751V11.1306C23.2333 10.2781 22.5005 9.58613 21.5979 9.58613C20.6953 9.58613 19.9626 10.2782 19.9626 11.1306V12.6751H16.0376ZM18 15.7643C20.8914 15.7643 23.2333 17.976 23.2333 20.7067C23.2333 23.4375 20.8915 25.6494 18 25.6494C15.1086 25.6494 12.7668 23.4375 12.7668 20.7067C12.7668 17.976 15.1086 15.7643 18 15.7643Z" fill="currentColor"/>
  </symbol>

  <symbol id="icon-contacts-mail" viewBox="0 0 47 50">
    <path fill-rule="evenodd" clip-rule="evenodd" d="M37.2786 32.9327L28.6178 25L37.2786 17.0673L36.0976 15.8053L23.5 27.3438L10.9024 15.8053L9.72137 17.0673L18.3822 25L9.72137 32.9327L10.9024 34.1947L19.6617 26.1719L23.5 29.6875L27.3383 26.1719L36.0976 34.1947L37.2786 32.9327ZM8.15193 12.5C6.5339 12.5 5.22223 13.8977 5.22223 15.6157V34.3843C5.22223 36.105 6.52326 37.5 8.15193 37.5H38.8481C40.4661 37.5 41.7778 36.1023 41.7778 34.3843V15.6157C41.7778 13.895 40.4768 12.5 38.8481 12.5H8.15193Z" fill="currentColor"/>
  </symbol>

  <symbol id="icon-facebook" viewBox="0 0 14 28">
    <path d="M9.53 27.75H2.71V14.85H0V8.47H2.63C2.43 5.58 2.93 3.47 4.15 2.03C4.73171 1.39087 5.44042 0.8802 6.23079 0.530647C7.02116 0.181094 7.87578 0.000357734 8.74 0L13.52 0V6.15H9.76C9.53848 6.90214 9.4538 7.68794 9.51 8.47H13.51V14.85H9.51L9.53 27.75ZM4.22 26.25H8V13.35H12V10H8V9.24C8 7.24 8 5.45 9 4.78L9.19 4.65H12V1.5H8.78C8.12565 1.49154 7.47682 1.62071 6.87559 1.87911C6.27436 2.13752 5.73416 2.5194 5.29 3C4.29 4.23 3.88 6.29 4.19 9.14L4.29 9.97H1.5V13.35H4.22V26.25Z" fill="currentColor"/>
  </symbol>

  <symbol id="icon-vkontakte" viewBox="0 0 31 16">
    <path d="M23.9461 15.7775C23.2083 15.761 22.4891 15.5431 21.8661 15.1475C21.2157 14.7079 20.6184 14.1945 20.0861 13.6175C19.6461 13.1775 18.9161 12.4375 18.6361 12.4375C18.3561 12.4375 18.1561 13.3575 18.1661 14.0075C18.1703 14.4562 18.0021 14.8894 17.6961 15.2175C17.3481 15.5018 16.9234 15.6758 16.4761 15.7175H14.5561C11.7965 15.6568 9.15414 14.59 7.12606 12.7175C3.44606 9.34753 0.286063 2.90753 0.156063 2.62753C0.0320633 2.39361 -0.0198655 2.12821 0.00683068 1.86481C0.0335268 1.6014 0.137651 1.35181 0.306063 1.14753C0.687199 0.829675 1.16985 0.659328 1.66606 0.667532H5.74606H5.86606C6.20364 0.716784 6.52722 0.835995 6.81606 1.01753C7.08788 1.1998 7.30552 1.45198 7.44606 1.74753C7.87724 2.6706 8.37175 3.56273 8.92606 4.41753C10.2361 6.41753 10.8161 6.87753 11.0261 6.97753C11.2597 6.03979 11.324 5.06788 11.2161 4.10753C11.2511 3.67014 11.179 3.2308 11.0061 2.82753C10.7865 2.65191 10.5169 2.55038 10.2361 2.53753L9.50606 1.84753C9.36606 1.18753 10.0961 0.617532 10.6061 0.397532C11.6238 0.0786297 12.6916 -0.0501836 13.7561 0.017532H14.4661C15.1881 -0.00127074 15.9099 0.0658674 16.6161 0.217532C18.3161 0.577532 18.2561 1.94753 18.1861 3.52753C18.1861 3.98753 18.1361 4.52753 18.1361 5.14753C18.1361 5.29753 18.1361 5.45753 18.1361 5.62753C18.0967 6.06289 18.1271 6.50174 18.2261 6.92753C19.0586 6.23108 19.7597 5.39116 20.2961 4.44753C20.875 3.55527 21.3832 2.61908 21.8161 1.64753C21.9479 1.34025 22.1739 1.08272 22.4614 0.912012C22.7489 0.741299 23.0832 0.666204 23.4161 0.697532H27.6961C27.8224 0.685471 27.9497 0.685471 28.0761 0.697532C29.0761 0.697532 29.6661 0.987532 29.9061 1.54753C30.1461 2.10753 30.0761 3.20753 27.5461 6.15753L26.5461 7.28753C26.0616 7.75797 25.6443 8.29301 25.3061 8.87753C25.6848 9.30811 26.1147 9.69093 26.5861 10.0175C27.7353 10.8835 28.7468 11.9186 29.5861 13.0875C29.7829 13.3148 29.9117 13.593 29.9576 13.8901C30.0036 14.1873 29.965 14.4914 29.8461 14.7675C29.6365 15.0734 29.3561 15.3241 29.0288 15.4982C28.7014 15.6723 28.3368 15.7647 27.9661 15.7675L24.1761 15.8175L23.9461 15.7775ZM18.6361 10.9375C19.5361 10.9375 20.3161 11.7275 21.1461 12.5575C21.5944 13.0471 22.0977 13.4833 22.6461 13.8575C23.0607 14.1333 23.5481 14.2795 24.0461 14.2775H24.1461L27.9461 14.2275C28.1335 14.2168 28.317 14.1692 28.4861 14.0875L28.3861 13.9275C27.6291 12.8959 26.7263 11.9797 25.7061 11.2075C24.5161 10.2075 23.9061 9.73753 23.8361 8.96753C23.7661 8.19753 24.3261 7.52753 25.4461 6.25753L26.4461 5.14753C27.2903 4.28639 27.9834 3.28908 28.4961 2.19753C28.2729 2.1843 28.0492 2.1843 27.8261 2.19753H23.4561C23.377 2.17986 23.2951 2.17986 23.2161 2.19753C22.7532 3.25898 22.2012 4.27929 21.5661 5.24753C19.6761 8.06753 18.7861 8.44753 18.1561 8.44753C17.9607 8.44753 17.7684 8.39945 17.5961 8.30753C16.5961 7.73753 16.5961 6.46753 16.6561 5.54753C16.6561 5.39753 16.6561 5.24753 16.6561 5.11753C16.6561 4.46753 16.6561 3.90753 16.7061 3.42753C16.7861 1.74753 16.7061 1.73753 16.3261 1.64753C15.7138 1.52655 15.09 1.4729 14.4661 1.48753H13.7761C13.1411 1.47441 12.5061 1.50784 11.8761 1.58753C11.9715 1.65784 12.0558 1.74212 12.1261 1.83753C12.5385 2.48787 12.7442 3.24794 12.7161 4.01753C12.8461 5.66753 12.7761 7.81753 11.7161 8.33753C11.5284 8.42537 11.3233 8.4698 11.1161 8.46753C10.1861 8.46753 9.26606 7.58753 7.69606 5.20753C7.09358 4.29624 6.5556 3.34392 6.08606 2.35753L6.00606 2.25753C5.90508 2.20606 5.79736 2.16903 5.68606 2.14753H1.68606H1.61606C2.20606 3.36753 5.00606 8.76753 8.13606 11.5975C9.89364 13.2122 12.1708 14.1451 14.5561 14.2275H16.4061C16.5004 14.2074 16.5914 14.1737 16.6761 14.1275C16.6761 14.1275 16.6761 14.1275 16.6761 14.0375C16.6761 13.7675 16.6761 11.4375 18.2561 11.0375C18.3784 10.9894 18.5059 10.9558 18.6361 10.9375Z" fill="currentColor"/>
  </symbol>

  <symbol id="icon-instagram" viewBox="0 0 24 24">
    <g clip-path="url(#clip0_1369_4270)">
      <path d="M17.2802 2.40094C18.4252 2.40347 19.5225 2.85943 20.3321 3.66904C21.1417 4.47865 21.5977 5.57598 21.6002 6.72094V17.2809C21.5977 18.4259 21.1417 19.5232 20.3321 20.3328C19.5225 21.1424 18.4252 21.5984 17.2802 21.6009H6.7202C5.57691 21.5959 4.48204 21.1388 3.6745 20.3295C2.86696 19.5201 2.41233 18.4242 2.4098 17.2809V6.72094C2.41233 5.57764 2.86696 4.48175 3.6745 3.67241C4.48204 2.86308 5.57691 2.406 6.7202 2.40094H17.2802ZM17.2802 0.960938H6.7202C5.19256 0.960938 3.72748 1.56779 2.64727 2.648C1.56706 3.72821 0.960205 5.19329 0.960205 6.72094L0.960205 17.2809C0.960205 18.8086 1.56706 20.2737 2.64727 21.3539C3.72748 22.4341 5.19256 23.0409 6.7202 23.0409H17.2802C18.8078 23.0409 20.2729 22.4341 21.3531 21.3539C22.4333 20.2737 23.0402 18.8086 23.0402 17.2809V6.72094C23.0402 5.19329 22.4333 3.72821 21.3531 2.648C20.2729 1.56779 18.8078 0.960938 17.2802 0.960938V0.960938Z" fill="currentColor"/>
      <path d="M12.0093 7.75642C12.8504 7.75642 13.6727 8.00584 14.372 8.47314C15.0714 8.94045 15.6165 9.60464 15.9384 10.3817C16.2603 11.1588 16.3445 12.0139 16.1804 12.8389C16.0163 13.6639 15.6112 14.4216 15.0165 15.0164C14.4217 15.6112 13.6639 16.0162 12.839 16.1803C12.014 16.3444 11.1589 16.2602 10.3818 15.9383C9.60472 15.6164 8.94052 15.0713 8.47321 14.3719C8.00591 13.6726 7.75649 12.8503 7.75649 12.0092C7.75522 11.4504 7.86436 10.8968 8.07764 10.3802C8.29091 9.8637 8.60412 9.39437 8.99928 8.99921C9.39444 8.60405 9.86377 8.29084 10.3803 8.07756C10.8969 7.86429 11.4504 7.75515 12.0093 7.75642ZM12.0093 6.31641C10.883 6.31451 9.78137 6.64678 8.84393 7.27115C7.90649 7.89553 7.17533 8.78396 6.74299 9.82402C6.31064 10.8641 6.19653 12.009 6.4151 13.1139C6.63368 14.2189 7.17511 15.2341 7.97088 16.0312C8.76664 16.8283 9.78099 17.3715 10.8855 17.5919C11.9901 17.8124 13.1352 17.7002 14.176 17.2696C15.2168 16.839 16.1065 16.1093 16.7324 15.173C17.3584 14.2366 17.6925 13.1356 17.6925 12.0092C17.6938 11.2621 17.5477 10.522 17.2626 9.8314C16.9776 9.14077 16.5592 8.51313 16.0313 7.98438C15.5035 7.45563 14.8765 7.03615 14.1864 6.74994C13.4962 6.46373 12.7564 6.31641 12.0093 6.31641Z" fill="currentColor"/>
      <path d="M17.9043 7.41264C18.6148 7.41264 19.1907 6.8367 19.1907 6.12624C19.1907 5.41578 18.6148 4.83984 17.9043 4.83984C17.1939 4.83984 16.6179 5.41578 16.6179 6.12624C16.6179 6.8367 17.1939 7.41264 17.9043 7.41264Z" fill="currentColor"/>
    </g>
    <defs>
      <clipPath id="clip0_1369_4270">
        <rect width="24" height="24" fill="white"/>
      </clipPath>
    </defs>
  </symbol>

  <symbol id="icon-logo-academy" viewBox="0 0 27 34">
    <g clip-path="url(#clip0_59_40)">
      <path d="M13.6426 0.101368L13.5 0.0859375L0 1.46443V25.5657L13.5 33.3892L27 25.5657V1.46443L13.6426 0.101368ZM25.2344 24.5885L13.5 31.3883L1.76561 24.5885V14.7093L13.4507 21.4834L13.4701 22.711L5.45351 18.0646L5.44295 19.2648L13.4894 23.9747L13.5088 25.2348L5.46408 20.5747L5.45351 21.7749L13.5 26.4847L21.6239 21.7509V20.5507V16.6484L25.2432 14.543L25.2344 24.5885ZM25.2344 13.2622L22.0147 15.1036L20.5325 15.9609L13.4666 11.8597L13.456 13.0599L19.4957 16.5593L19.4429 16.5901L19.3126 16.6638L18.4536 17.1456L13.4666 14.2583L13.456 15.4585L17.3921 17.7389L16.4591 18.3355L16.438 18.3475L13.4666 16.6416L13.456 17.8417L15.4029 18.9528L13.4155 20.1152L1.7973 13.3839L13.4349 6.56862L25.2344 13.2622ZM25.2344 12.062L13.4401 5.28786L1.76561 12.0552V3.01438L13.5 1.8142L25.2344 3.01438V12.062Z" fill="currentColor"/>
    </g>
    <defs>
      <clipPath id="clip0_59_40">
        <rect width="27" height="33.3033" fill="currentColor" transform="translate(0 0.0859375)"/>
      </clipPath>
    </defs>
  </symbol>

  <symbol id="icon-call" viewBox="0 0 19 19">
    <path d="M9.77429 8.22389C9.77429 8.41289 9.92792 8.56139 10.1157 8.56139C10.5048 8.56139 10.8189 8.87526 10.8189 9.25664C10.8189 9.44226 10.9725 9.59414 11.1603 9.59414C11.348 9.59414 11.5017 9.44226 11.5017 9.25664C11.5017 8.50064 10.8804 7.88639 10.1157 7.88639C9.92792 7.88639 9.77429 8.03827 9.77429 8.22389ZM15.332 9.59414C15.5231 9.59414 15.6733 9.44226 15.6733 9.25664C15.6733 6.22589 13.1813 3.76215 10.1157 3.76215C9.92792 3.76215 9.77429 3.914 9.77429 4.09965C9.77429 4.28527 9.92792 4.43715 10.1157 4.43715C12.8057 4.43715 14.9906 6.60051 14.9906 9.25664C14.9906 9.44226 15.1442 9.59414 15.332 9.59414Z" fill="currentColor"/>
    <path d="M12.9047 9.25661C12.9047 9.44223 13.0583 9.59411 13.2461 9.59411C13.4339 9.59411 13.5875 9.44223 13.5875 9.25661C13.5875 7.36324 12.0308 5.82424 10.1157 5.82424C9.9279 5.82424 9.77427 5.97612 9.77427 6.16174C9.77427 6.35074 9.9279 6.49924 10.1157 6.49924C11.6553 6.49924 12.9047 7.73786 12.9047 9.25661ZM10.1157 1.69998C9.9279 1.69998 9.77427 1.85186 9.77427 2.03748C9.77427 2.22312 9.9279 2.37498 10.1157 2.37498C13.9562 2.37498 17.0798 5.46312 17.0798 9.25661C17.0798 9.44223 17.23 9.59411 17.4212 9.59411C17.6089 9.59411 17.7626 9.44223 17.7626 9.25661C17.7626 5.0885 14.3317 1.69998 10.1157 1.69998ZM13.4509 12.8139L13.0037 13.0535C12.2493 13.4619 11.6622 14.5812 10.7312 13.7375L8.30011 11.3L6.20004 9.25661C5.14495 7.92348 6.32635 7.60623 6.73941 6.85699L6.98179 6.41825C7.25489 5.91873 7.35388 5.35849 7.27196 4.79823C7.19345 4.23799 6.93741 3.72836 6.52775 3.32336C6.02935 2.83062 5.36707 2.56062 4.66042 2.56062C3.95376 2.56062 3.28807 2.83062 2.78964 3.32336L2.61556 3.49886C1.69383 4.41012 1.588 5.97948 2.31514 7.92348C3.0013 9.77973 4.3839 11.7912 6.20004 13.5867C8.96862 16.3239 12.0513 17.9 14.2634 17.9C15.1373 17.9 15.8781 17.6536 16.4039 17.1339L16.5814 16.9584C17.0764 16.469 17.3529 15.8142 17.3563 15.1089C17.3529 14.4204 17.0695 13.7454 16.5814 13.2627C15.7587 12.4494 14.4717 12.2671 13.4509 12.8139Z" fill="currentColor"/>
  </symbol>

  <symbol id="icon-mail" viewBox="0 0 19 17">
    <path d="M2.0166 3.32528L8.7666 7.55572C8.9934 7.69747 9.2868 7.76467 9.582 7.76467C9.8772 7.76467 10.1706 7.69747 10.3974 7.55572L17.1474 3.32528C17.5875 3.04913 18.0033 1.97498 17.196 1.97498H1.9689C1.1616 1.97498 1.5774 3.04913 2.0166 3.32528ZM17.3517 5.63842L10.3974 9.86677C10.0914 10.0537 9.8772 10.0757 9.582 10.0757C9.2868 10.0757 9.0726 10.0537 8.7666 9.86677C8.4606 9.67987 2.3469 5.94082 1.8474 5.63737C1.4964 5.42317 1.5 5.67412 1.5 5.86732V13.525C1.5 13.966 2.0094 14.575 2.4 14.575H16.8C17.1906 14.575 17.7 13.966 17.7 13.525V5.86837C17.7 5.67517 17.7036 5.42422 17.3517 5.63842Z" fill="currentColor"/>
  </symbol>

  <symbol id="icon-play" viewBox="0 0 11 12">
    <path d="M10.0698 6.07495L0.157238 11.7041L0.157238 0.445786L10.0698 6.07495Z" fill="currentColor"/>
  </symbol>

  <svg id="icon-user" viewBox="0 0 14 14">
    <path opacity="0.1" d="M4.375 3.92978C4.375 5.4532 5.55275 6.69294 7 6.69294C8.44725 6.69294 9.625 5.4532 9.625 3.92978C9.625 2.40636 8.44725 1.16663 7 1.16663C5.55275 1.16663 4.375 2.40636 4.375 3.92978ZM11.6667 12.8333H12.25V12.2193C12.25 9.8497 10.4177 7.92101 8.16667 7.92101H5.83333C3.58167 7.92101 1.75 9.8497 1.75 12.2193V12.8333H11.6667Z" fill="#192144"/>
  </svg>

</svg>
