<svg xmlns="http://www.w3.org/2000/svg" fill="none" style="display: none;">
  <symbol id="icon-contacts-mobile" viewBox="0 0 36 34">
    <path fill-rule="evenodd" clip-rule="evenodd" d="M18 2.17236C12.4071 2.17236 6.80078 3.1177 4.76656 5.00191C3.07881 6.5651 2.5162 9.32664 2.32655 11.0751C2.32655 11.0751 2.30042 11.2479 2.30042 11.3222C2.30042 12.0079 2.88902 12.5578 3.60866 12.5578C3.69369 12.5578 6.84016 12.3168 8.73714 12.1686C8.78279 12.1623 8.8288 12.1562 8.87445 12.1439C9.58098 12.1255 10.1502 11.5817 10.1502 10.9083L10.1566 8.47406C10.1566 7.72035 10.8044 7.11481 11.6025 7.11481H24.3974C25.1957 7.11481 25.8436 7.72028 25.8436 8.47406L25.85 10.9083C25.85 11.5817 26.4192 12.1255 27.1257 12.1439C27.171 12.1563 27.217 12.1623 27.2632 12.1686C29.1603 12.3167 32.3067 12.5578 32.3915 12.5578C33.1108 12.5578 33.6998 12.0079 33.6998 11.3222C33.6998 11.2479 33.6737 11.0751 33.6737 11.0751C33.4839 9.32664 32.922 6.56516 31.2341 5.00191C29.1993 3.1177 23.5929 2.17236 18 2.17236ZM18 18.2355C16.5543 18.2355 15.3834 19.3413 15.3834 20.7067C15.3834 22.0721 16.5543 23.1778 18 23.1778C19.4457 23.1778 20.6166 22.0721 20.6166 20.7067C20.6166 19.3413 19.4457 18.2355 18 18.2355ZM16.0376 12.6751V11.1306C16.0376 10.2781 15.3048 9.58613 14.4023 9.58613C13.4997 9.58613 12.7669 10.2782 12.7669 11.1306V12.6751L3.94202 21.5779C3.3339 22.1402 2.95439 22.9245 2.95439 23.7897V26.2671C2.95439 27.6325 4.1254 28.7383 5.57102 28.7383H6.22521V30.2829C6.22521 31.1354 6.95802 31.8273 7.86062 31.8273C8.76321 31.8273 9.49595 31.1354 9.49595 30.2829V28.7383H26.5041V30.2829C26.5041 31.1354 27.2366 31.8273 28.1396 31.8273C29.0422 31.8273 29.7748 31.1354 29.7748 30.2829V28.7383H30.4289C31.8746 28.7383 33.0455 27.6325 33.0455 26.2671V23.7897C33.0455 22.9245 32.6661 22.1401 32.0579 21.5779L23.2333 12.6751V11.1306C23.2333 10.2781 22.5005 9.58613 21.5979 9.58613C20.6953 9.58613 19.9626 10.2782 19.9626 11.1306V12.6751H16.0376ZM18 15.7643C20.8914 15.7643 23.2333 17.976 23.2333 20.7067C23.2333 23.4375 20.8915 25.6494 18 25.6494C15.1086 25.6494 12.7668 23.4375 12.7668 20.7067C12.7668 17.976 15.1086 15.7643 18 15.7643Z" fill="currentColor"/>
  </symbol>

  <symbol id="icon-contacts-mail" viewBox="0 0 47 50">
    <path fill-rule="evenodd" clip-rule="evenodd" d="M37.2786 32.9327L28.6178 25L37.2786 17.0673L36.0976 15.8053L23.5 27.3438L10.9024 15.8053L9.72137 17.0673L18.3822 25L9.72137 32.9327L10.9024 34.1947L19.6617 26.1719L23.5 29.6875L27.3383 26.1719L36.0976 34.1947L37.2786 32.9327ZM8.15193 12.5C6.5339 12.5 5.22223 13.8977 5.22223 15.6157V34.3843C5.22223 36.105 6.52326 37.5 8.15193 37.5H38.8481C40.4661 37.5 41.7778 36.1023 41.7778 34.3843V15.6157C41.7778 13.895 40.4768 12.5 38.8481 12.5H8.15193Z" fill="currentColor"/>
  </symbol>

  <symbol id="icon-facebook" viewBox="0 0 14 28">
    <path d="M9.53 27.75H2.71V14.85H0V8.47H2.63C2.43 5.58 2.93 3.47 4.15 2.03C4.73171 1.39087 5.44042 0.8802 6.23079 0.530647C7.02116 0.181094 7.87578 0.000357734 8.74 0L13.52 0V6.15H9.76C9.53848 6.90214 9.4538 7.68794 9.51 8.47H13.51V14.85H9.51L9.53 27.75ZM4.22 26.25H8V13.35H12V10H8V9.24C8 7.24 8 5.45 9 4.78L9.19 4.65H12V1.5H8.78C8.12565 1.49154 7.47682 1.62071 6.87559 1.87911C6.27436 2.13752 5.73416 2.5194 5.29 3C4.29 4.23 3.88 6.29 4.19 9.14L4.29 9.97H1.5V13.35H4.22V26.25Z" fill="currentColor"/>
  </symbol>

  <symbol id="icon-vkontakte" viewBox="0 0 31 16">
    <path d="M23.9461 15.7775C23.2083 15.761 22.4891 15.5431 21.8661 15.1475C21.2157 14.7079 20.6184 14.1945 20.0861 13.6175C19.6461 13.1775 18.9161 12.4375 18.6361 12.4375C18.3561 12.4375 18.1561 13.3575 18.1661 14.0075C18.1703 14.4562 18.0021 14.8894 17.6961 15.2175C17.3481 15.5018 16.9234 15.6758 16.4761 15.7175H14.5561C11.7965 15.6568 9.15414 14.59 7.12606 12.7175C3.44606 9.34753 0.286063 2.90753 0.156063 2.62753C0.0320633 2.39361 -0.0198655 2.12821 0.00683068 1.86481C0.0335268 1.6014 0.137651 1.35181 0.306063 1.14753C0.687199 0.829675 1.16985 0.659328 1.66606 0.667532H5.74606H5.86606C6.20364 0.716784 6.52722 0.835995 6.81606 1.01753C7.08788 1.1998 7.30552 1.45198 7.44606 1.74753C7.87724 2.6706 8.37175 3.56273 8.92606 4.41753C10.2361 6.41753 10.8161 6.87753 11.0261 6.97753C11.2597 6.03979 11.324 5.06788 11.2161 4.10753C11.2511 3.67014 11.179 3.2308 11.0061 2.82753C10.7865 2.65191 10.5169 2.55038 10.2361 2.53753L9.50606 1.84753C9.36606 1.18753 10.0961 0.617532 10.6061 0.397532C11.6238 0.0786297 12.6916 -0.0501836 13.7561 0.017532H14.4661C15.1881 -0.00127074 15.9099 0.0658674 16.6161 0.217532C18.3161 0.577532 18.2561 1.94753 18.1861 3.52753C18.1861 3.98753 18.1361 4.52753 18.1361 5.14753C18.1361 5.29753 18.1361 5.45753 18.1361 5.62753C18.0967 6.06289 18.1271 6.50174 18.2261 6.92753C19.0586 6.23108 19.7597 5.39116 20.2961 4.44753C20.875 3.55527 21.3832 2.61908 21.8161 1.64753C21.9479 1.34025 22.1739 1.08272 22.4614 0.912012C22.7489 0.741299 23.0832 0.666204 23.4161 0.697532H27.6961C27.8224 0.685471 27.9497 0.685471 28.0761 0.697532C29.0761 0.697532 29.6661 0.987532 29.9061 1.54753C30.1461 2.10753 30.0761 3.20753 27.5461 6.15753L26.5461 7.28753C26.0616 7.75797 25.6443 8.29301 25.3061 8.87753C25.6848 9.30811 26.1147 9.69093 26.5861 10.0175C27.7353 10.8835 28.7468 11.9186 29.5861 13.0875C29.7829 13.3148 29.9117 13.593 29.9576 13.8901C30.0036 14.1873 29.965 14.4914 29.8461 14.7675C29.6365 15.0734 29.3561 15.3241 29.0288 15.4982C28.7014 15.6723 28.3368 15.7647 27.9661 15.7675L24.1761 15.8175L23.9461 15.7775ZM18.6361 10.9375C19.5361 10.9375 20.3161 11.7275 21.1461 12.5575C21.5944 13.0471 22.0977 13.4833 22.6461 13.8575C23.0607 14.1333 23.5481 14.2795 24.0461 14.2775H24.1461L27.9461 14.2275C28.1335 14.2168 28.317 14.1692 28.4861 14.0875L28.3861 13.9275C27.6291 12.8959 26.7263 11.9797 25.7061 11.2075C24.5161 10.2075 23.9061 9.73753 23.8361 8.96753C23.7661 8.19753 24.3261 7.52753 25.4461 6.25753L26.4461 5.14753C27.2903 4.28639 27.9834 3.28908 28.4961 2.19753C28.2729 2.1843 28.0492 2.1843 27.8261 2.19753H23.4561C23.377 2.17986 23.2951 2.17986 23.2161 2.19753C22.7532 3.25898 22.2012 4.27929 21.5661 5.24753C19.6761 8.06753 18.7861 8.44753 18.1561 8.44753C17.9607 8.44753 17.7684 8.39945 17.5961 8.30753C16.5961 7.73753 16.5961 6.46753 16.6561 5.54753C16.6561 5.39753 16.6561 5.24753 16.6561 5.11753C16.6561 4.46753 16.6561 3.90753 16.7061 3.42753C16.7861 1.74753 16.7061 1.73753 16.3261 1.64753C15.7138 1.52655 15.09 1.4729 14.4661 1.48753H13.7761C13.1411 1.47441 12.5061 1.50784 11.8761 1.58753C11.9715 1.65784 12.0558 1.74212 12.1261 1.83753C12.5385 2.48787 12.7442 3.24794 12.7161 4.01753C12.8461 5.66753 12.7761 7.81753 11.7161 8.33753C11.5284 8.42537 11.3233 8.4698 11.1161 8.46753C10.1861 8.46753 9.26606 7.58753 7.69606 5.20753C7.09358 4.29624 6.5556 3.34392 6.08606 2.35753L6.00606 2.25753C5.90508 2.20606 5.79736 2.16903 5.68606 2.14753H1.68606H1.61606C2.20606 3.36753 5.00606 8.76753 8.13606 11.5975C9.89364 13.2122 12.1708 14.1451 14.5561 14.2275H16.4061C16.5004 14.2074 16.5914 14.1737 16.6761 14.1275C16.6761 14.1275 16.6761 14.1275 16.6761 14.0375C16.6761 13.7675 16.6761 11.4375 18.2561 11.0375C18.3784 10.9894 18.5059 10.9558 18.6361 10.9375Z" fill="currentColor"/>
  </symbol>

  <symbol id="icon-instagram" viewBox="0 0 24 24">
    <g clip-path="url(#clip0_1369_4270)">
      <path d="M17.2802 2.40094C18.4252 2.40347 19.5225 2.85943 20.3321 3.66904C21.1417 4.47865 21.5977 5.57598 21.6002 6.72094V17.2809C21.5977 18.4259 21.1417 19.5232 20.3321 20.3328C19.5225 21.1424 18.4252 21.5984 17.2802 21.6009H6.7202C5.57691 21.5959 4.48204 21.1388 3.6745 20.3295C2.86696 19.5201 2.41233 18.4242 2.4098 17.2809V6.72094C2.41233 5.57764 2.86696 4.48175 3.6745 3.67241C4.48204 2.86308 5.57691 2.406 6.7202 2.40094H17.2802ZM17.2802 0.960938H6.7202C5.19256 0.960938 3.72748 1.56779 2.64727 2.648C1.56706 3.72821 0.960205 5.19329 0.960205 6.72094L0.960205 17.2809C0.960205 18.8086 1.56706 20.2737 2.64727 21.3539C3.72748 22.4341 5.19256 23.0409 6.7202 23.0409H17.2802C18.8078 23.0409 20.2729 22.4341 21.3531 21.3539C22.4333 20.2737 23.0402 18.8086 23.0402 17.2809V6.72094C23.0402 5.19329 22.4333 3.72821 21.3531 2.648C20.2729 1.56779 18.8078 0.960938 17.2802 0.960938V0.960938Z" fill="currentColor"/>
      <path d="M12.0093 7.75642C12.8504 7.75642 13.6727 8.00584 14.372 8.47314C15.0714 8.94045 15.6165 9.60464 15.9384 10.3817C16.2603 11.1588 16.3445 12.0139 16.1804 12.8389C16.0163 13.6639 15.6112 14.4216 15.0165 15.0164C14.4217 15.6112 13.6639 16.0162 12.839 16.1803C12.014 16.3444 11.1589 16.2602 10.3818 15.9383C9.60472 15.6164 8.94052 15.0713 8.47321 14.3719C8.00591 13.6726 7.75649 12.8503 7.75649 12.0092C7.75522 11.4504 7.86436 10.8968 8.07764 10.3802C8.29091 9.8637 8.60412 9.39437 8.99928 8.99921C9.39444 8.60405 9.86377 8.29084 10.3803 8.07756C10.8969 7.86429 11.4504 7.75515 12.0093 7.75642ZM12.0093 6.31641C10.883 6.31451 9.78137 6.64678 8.84393 7.27115C7.90649 7.89553 7.17533 8.78396 6.74299 9.82402C6.31064 10.8641 6.19653 12.009 6.4151 13.1139C6.63368 14.2189 7.17511 15.2341 7.97088 16.0312C8.76664 16.8283 9.78099 17.3715 10.8855 17.5919C11.9901 17.8124 13.1352 17.7002 14.176 17.2696C15.2168 16.839 16.1065 16.1093 16.7324 15.173C17.3584 14.2366 17.6925 13.1356 17.6925 12.0092C17.6938 11.2621 17.5477 10.522 17.2626 9.8314C16.9776 9.14077 16.5592 8.51313 16.0313 7.98438C15.5035 7.45563 14.8765 7.03615 14.1864 6.74994C13.4962 6.46373 12.7564 6.31641 12.0093 6.31641Z" fill="currentColor"/>
      <path d="M17.9043 7.41264C18.6148 7.41264 19.1907 6.8367 19.1907 6.12624C19.1907 5.41578 18.6148 4.83984 17.9043 4.83984C17.1939 4.83984 16.6179 5.41578 16.6179 6.12624C16.6179 6.8367 17.1939 7.41264 17.9043 7.41264Z" fill="currentColor"/>
    </g>
    <defs>
      <clipPath id="clip0_1369_4270">
        <rect width="24" height="24" fill="white"/>
      </clipPath>
    </defs>
  </symbol>

  <symbol id="icon-logo-academy" viewBox="0 0 27 34">
    <g clip-path="url(#clip0_59_40)">
      <path d="M13.6426 0.101368L13.5 0.0859375L0 1.46443V25.5657L13.5 33.3892L27 25.5657V1.46443L13.6426 0.101368ZM25.2344 24.5885L13.5 31.3883L1.76561 24.5885V14.7093L13.4507 21.4834L13.4701 22.711L5.45351 18.0646L5.44295 19.2648L13.4894 23.9747L13.5088 25.2348L5.46408 20.5747L5.45351 21.7749L13.5 26.4847L21.6239 21.7509V20.5507V16.6484L25.2432 14.543L25.2344 24.5885ZM25.2344 13.2622L22.0147 15.1036L20.5325 15.9609L13.4666 11.8597L13.456 13.0599L19.4957 16.5593L19.4429 16.5901L19.3126 16.6638L18.4536 17.1456L13.4666 14.2583L13.456 15.4585L17.3921 17.7389L16.4591 18.3355L16.438 18.3475L13.4666 16.6416L13.456 17.8417L15.4029 18.9528L13.4155 20.1152L1.7973 13.3839L13.4349 6.56862L25.2344 13.2622ZM25.2344 12.062L13.4401 5.28786L1.76561 12.0552V3.01438L13.5 1.8142L25.2344 3.01438V12.062Z" fill="currentColor"/>
    </g>
    <defs>
      <clipPath id="clip0_59_40">
        <rect width="27" height="33.3033" fill="currentColor" transform="translate(0 0.0859375)"/>
      </clipPath>
    </defs>
  </symbol>

  <symbol id="icon-call" viewBox="0 0 19 19">
    <path d="M9.77429 8.22389C9.77429 8.41289 9.92792 8.56139 10.1157 8.56139C10.5048 8.56139 10.8189 8.87526 10.8189 9.25664C10.8189 9.44226 10.9725 9.59414 11.1603 9.59414C11.348 9.59414 11.5017 9.44226 11.5017 9.25664C11.5017 8.50064 10.8804 7.88639 10.1157 7.88639C9.92792 7.88639 9.77429 8.03827 9.77429 8.22389ZM15.332 9.59414C15.5231 9.59414 15.6733 9.44226 15.6733 9.25664C15.6733 6.22589 13.1813 3.76215 10.1157 3.76215C9.92792 3.76215 9.77429 3.914 9.77429 4.09965C9.77429 4.28527 9.92792 4.43715 10.1157 4.43715C12.8057 4.43715 14.9906 6.60051 14.9906 9.25664C14.9906 9.44226 15.1442 9.59414 15.332 9.59414Z" fill="currentColor"/>
    <path d="M12.9047 9.25661C12.9047 9.44223 13.0583 9.59411 13.2461 9.59411C13.4339 9.59411 13.5875 9.44223 13.5875 9.25661C13.5875 7.36324 12.0308 5.82424 10.1157 5.82424C9.9279 5.82424 9.77427 5.97612 9.77427 6.16174C9.77427 6.35074 9.9279 6.49924 10.1157 6.49924C11.6553 6.49924 12.9047 7.73786 12.9047 9.25661ZM10.1157 1.69998C9.9279 1.69998 9.77427 1.85186 9.77427 2.03748C9.77427 2.22312 9.9279 2.37498 10.1157 2.37498C13.9562 2.37498 17.0798 5.46312 17.0798 9.25661C17.0798 9.44223 17.23 9.59411 17.4212 9.59411C17.6089 9.59411 17.7626 9.44223 17.7626 9.25661C17.7626 5.0885 14.3317 1.69998 10.1157 1.69998ZM13.4509 12.8139L13.0037 13.0535C12.2493 13.4619 11.6622 14.5812 10.7312 13.7375L8.30011 11.3L6.20004 9.25661C5.14495 7.92348 6.32635 7.60623 6.73941 6.85699L6.98179 6.41825C7.25489 5.91873 7.35388 5.35849 7.27196 4.79823C7.19345 4.23799 6.93741 3.72836 6.52775 3.32336C6.02935 2.83062 5.36707 2.56062 4.66042 2.56062C3.95376 2.56062 3.28807 2.83062 2.78964 3.32336L2.61556 3.49886C1.69383 4.41012 1.588 5.97948 2.31514 7.92348C3.0013 9.77973 4.3839 11.7912 6.20004 13.5867C8.96862 16.3239 12.0513 17.9 14.2634 17.9C15.1373 17.9 15.8781 17.6536 16.4039 17.1339L16.5814 16.9584C17.0764 16.469 17.3529 15.8142 17.3563 15.1089C17.3529 14.4204 17.0695 13.7454 16.5814 13.2627C15.7587 12.4494 14.4717 12.2671 13.4509 12.8139Z" fill="currentColor"/>
  </symbol>

  <symbol id="icon-mail" viewBox="0 0 19 17">
    <path d="M2.0166 3.32528L8.7666 7.55572C8.9934 7.69747 9.2868 7.76467 9.582 7.76467C9.8772 7.76467 10.1706 7.69747 10.3974 7.55572L17.1474 3.32528C17.5875 3.04913 18.0033 1.97498 17.196 1.97498H1.9689C1.1616 1.97498 1.5774 3.04913 2.0166 3.32528ZM17.3517 5.63842L10.3974 9.86677C10.0914 10.0537 9.8772 10.0757 9.582 10.0757C9.2868 10.0757 9.0726 10.0537 8.7666 9.86677C8.4606 9.67987 2.3469 5.94082 1.8474 5.63737C1.4964 5.42317 1.5 5.67412 1.5 5.86732V13.525C1.5 13.966 2.0094 14.575 2.4 14.575H16.8C17.1906 14.575 17.7 13.966 17.7 13.525V5.86837C17.7 5.67517 17.7036 5.42422 17.3517 5.63842Z" fill="currentColor"/>
  </symbol>

  <symbol id="icon-play" viewBox="0 0 11 12">
    <path d="M10.0698 6.07497L0.157238 11.7041V0.445801L10.0698 6.07497Z" fill="currentColor"/>
  </symbol>

  <symbol id="icon-user" viewBox="0 0 14 14">
    <path opacity="0.1" d="M4.375 3.92978C4.375 5.4532 5.55275 6.69294 7 6.69294C8.44725 6.69294 9.625 5.4532 9.625 3.92978C9.625 2.40636 8.44725 1.16663 7 1.16663C5.55275 1.16663 4.375 2.40636 4.375 3.92978ZM11.6667 12.8333H12.25V12.2193C12.25 9.8497 10.4177 7.92101 8.16667 7.92101H5.83333C3.58167 7.92101 1.75 9.8497 1.75 12.2193V12.8333H11.6667Z" fill="#192144"/>
  </symbol>

  <symbol id="icon-plane" viewBox="0 0 23 22">
    <g clip-path="url(#clip0_1369_3731)">
      <path d="M18.5347 1.1803C17.7301 1.36073 16.9218 1.542 16.6212 2.03873L14.2941 6.41228L1.79919 9.21442L1.29295 10.6118L10.8544 11.4647L9.23212 15.2509L5.60602 16.0641L4.69562 17.5521L7.31158 17.8201L7.60988 19.0371C7.74352 19.4685 8.21259 19.7565 8.61297 19.6667L9.82168 19.3956L11.2228 21.6492L12.1332 20.1611L11.2383 16.5101L13.8637 13.3536L18.8731 21.6468L19.8832 20.5656L16.8005 7.9887L19.6314 3.93144C19.9358 3.43387 19.7373 2.6238 19.5378 1.80994C19.439 1.40681 18.9351 1.09051 18.5347 1.1803Z" fill="currentColor"/>
    </g>
    <defs>
      <clipPath id="clip0_1369_3731">
        <rect width="23" height="22" fill="white"/>
      </clipPath>
    </defs>
  </symbol>

  <symbol id="icon-bus" viewBox="0 0 18 20">
    <g clip-path="url(#clip0_1369_4054)">
      <path d="M4.50098 13.5714C4.50098 13.1771 4.35456 12.8404 4.06171 12.5614C3.76886 12.2824 3.41549 12.1429 3.0016 12.1429C2.58771 12.1429 2.23435 12.2824 1.9415 12.5614C1.64865 12.8404 1.50223 13.1771 1.50223 13.5714C1.50223 13.9658 1.64865 14.3025 1.9415 14.5815C2.23435 14.8605 2.58771 15 3.0016 15C3.41549 15 3.76886 14.8605 4.06171 14.5815C4.35456 14.3025 4.50098 13.9658 4.50098 13.5714ZM16.496 13.5714C16.496 13.1771 16.3496 12.8404 16.0567 12.5614C15.7639 12.2824 15.4105 12.1429 14.9966 12.1429C14.5827 12.1429 14.2293 12.2824 13.9365 12.5614C13.6437 12.8404 13.4972 13.1771 13.4972 13.5714C13.4972 13.9658 13.6437 14.3025 13.9365 14.5815C14.2293 14.8605 14.5827 15 14.9966 15C15.4105 15 15.7639 14.8605 16.0567 14.5815C16.3496 14.3025 16.496 13.9658 16.496 13.5714ZM15.9571 9.15179L15.1137 4.86607C15.0747 4.69494 14.9868 4.55543 14.8502 4.44754C14.7135 4.33966 14.5554 4.28571 14.3758 4.28571H3.62244C3.44283 4.28571 3.28469 4.33966 3.14803 4.44754C3.01137 4.55543 2.92351 4.69494 2.88447 4.86607L2.04107 9.15179C2.00202 9.375 2.05669 9.57217 2.20506 9.7433C2.35344 9.91443 2.54476 10 2.77904 10H15.2192C15.4534 10 15.6448 9.91443 15.7931 9.7433C15.9415 9.57217 15.9962 9.375 15.9571 9.15179ZM13.3098 2.32143C13.3098 2.17262 13.2551 2.04613 13.1458 1.94196C13.0365 1.8378 12.9037 1.78571 12.7475 1.78571H5.25067C5.09448 1.78571 4.96172 1.8378 4.8524 1.94196C4.74307 2.04613 4.6884 2.17262 4.6884 2.32143C4.6884 2.47024 4.74307 2.59673 4.8524 2.70089C4.96172 2.80506 5.09448 2.85714 5.25067 2.85714H12.7475C12.9037 2.85714 13.0365 2.80506 13.1458 2.70089C13.2551 2.59673 13.3098 2.47024 13.3098 2.32143ZM17.9954 10.4129V17.1429H16.496V18.5714C16.496 18.9658 16.3496 19.3025 16.0567 19.5815C15.7639 19.8605 15.4105 20 14.9966 20C14.5827 20 14.2293 19.8605 13.9365 19.5815C13.6437 19.3025 13.4972 18.9658 13.4972 18.5714V17.1429H4.50098V18.5714C4.50098 18.9658 4.35456 19.3025 4.06171 19.5815C3.76886 19.8605 3.41549 20 3.0016 20C2.58771 20 2.23435 19.8605 1.9415 19.5815C1.64865 19.3025 1.50223 18.9658 1.50223 18.5714V17.1429H0.00285339V10.4129C0.00285339 9.57961 0.100469 8.75 0.2957 7.92411L1.50223 2.85714C1.57251 2.27679 1.95321 1.76711 2.64433 1.32812C3.33545 0.889137 4.23351 0.558036 5.33852 0.334821C6.44353 0.111607 7.66372 0 8.99911 0C10.3345 0 11.5547 0.111607 12.6597 0.334821C13.7647 0.558036 14.6628 0.889137 15.3539 1.32812C16.045 1.76711 16.4257 2.27679 16.496 2.85714L17.7259 7.92411C17.9056 8.68304 17.9954 9.51265 17.9954 10.4129Z" fill="currentColor"/>
    </g>
    <defs>
      <clipPath id="clip0_1369_4054">
        <rect width="18" height="20" fill="white"/>
      </clipPath>
    </defs>
  </symbol>

  <symbol id="icon-bicycle" viewBox="0 0 24 24">
    <path d="M18.1875 21C17.3346 21 16.5008 20.7471 15.7916 20.2732C15.0824 19.7994 14.5297 19.1258 14.2033 18.3378C13.8769 17.5498 13.7915 16.6827 13.9579 15.8462C14.1243 15.0096 14.535 14.2412 15.1381 13.6381C15.7412 13.035 16.5096 12.6243 17.3462 12.4579C18.1827 12.2915 19.0498 12.3769 19.8378 12.7033C20.6258 13.0297 21.2994 13.5824 21.7732 14.2916C22.2471 15.0008 22.5 15.8346 22.5 16.6875C22.4988 17.8309 22.044 18.927 21.2355 19.7355C20.427 20.544 19.3309 20.9988 18.1875 21ZM18.1875 13.875C17.6312 13.875 17.0875 14.04 16.625 14.349C16.1624 14.658 15.802 15.0973 15.5891 15.6112C15.3762 16.1251 15.3205 16.6906 15.429 17.2362C15.5376 17.7818 15.8054 18.2829 16.1988 18.6762C16.5921 19.0696 17.0932 19.3374 17.6388 19.446C18.1844 19.5545 18.7499 19.4988 19.2638 19.2859C19.7777 19.073 20.217 18.7126 20.526 18.25C20.8351 17.7875 21 17.2438 21 16.6875C20.9991 15.9418 20.7025 15.227 20.1753 14.6997C19.648 14.1725 18.9332 13.8759 18.1875 13.875Z" fill="currentColor"/>
    <path d="M5.8125 21C4.95957 21 4.12579 20.7471 3.41661 20.2732C2.70742 19.7994 2.15467 19.1258 1.82827 18.3378C1.50187 17.5498 1.41647 16.6827 1.58287 15.8462C1.74926 15.0096 2.15999 14.2412 2.7631 13.6381C3.36622 13.035 4.13463 12.6243 4.97117 12.4579C5.80772 12.2915 6.67482 12.3769 7.46282 12.7033C8.25083 13.0297 8.92435 13.5824 9.39822 14.2916C9.87208 15.0008 10.125 15.8346 10.125 16.6875C10.1238 17.8309 9.66901 18.927 8.86053 19.7355C8.05205 20.544 6.95587 20.9988 5.8125 21ZM5.8125 13.875C5.25624 13.875 4.71247 14.04 4.24996 14.349C3.78745 14.658 3.42696 15.0973 3.21409 15.6112C3.00122 16.1251 2.94552 16.6906 3.05404 17.2362C3.16256 17.7818 3.43043 18.2829 3.82376 18.6762C4.2171 19.0696 4.71824 19.3374 5.26381 19.446C5.80938 19.5545 6.37488 19.4988 6.8888 19.2859C7.40272 19.073 7.84197 18.7126 8.15101 18.25C8.46005 17.7875 8.625 17.2438 8.625 16.6875C8.62413 15.9418 8.32754 15.227 7.80028 14.6997C7.27302 14.1725 6.55816 13.8759 5.8125 13.875Z" fill="currentColor"/>
    <path d="M15 6.00005C15.1976 6.00073 15.3933 5.96225 15.5759 5.88681C15.7585 5.81138 15.9244 5.7005 16.0638 5.56058C16.2033 5.42065 16.3137 5.25447 16.3886 5.07163C16.4634 4.88879 16.5013 4.69293 16.5 4.49536C16.5022 4.29878 16.4651 4.10374 16.3911 3.92164C16.317 3.73954 16.2074 3.57403 16.0686 3.4348C15.9298 3.29558 15.7646 3.18542 15.5827 3.11077C15.4009 3.03612 15.2059 2.99848 15.0094 3.00005C14.8124 2.99943 14.6172 3.03762 14.435 3.11243C14.2528 3.18725 14.0871 3.29722 13.9473 3.43607C13.8076 3.57493 13.6966 3.73994 13.6207 3.92169C13.5447 4.10344 13.5053 4.29838 13.5047 4.49536C13.5041 4.69234 13.5422 4.88752 13.6171 5.06974C13.6919 5.25197 13.8018 5.41767 13.9407 5.55739C14.0796 5.69712 14.2446 5.80812 14.4263 5.88407C14.6081 5.96002 14.803 5.99943 15 6.00005Z" fill="currentColor"/>
    <path d="M17.2289 9.00028H15.1777C15.144 9.00028 15.111 8.99124 15.082 8.97408C15.0531 8.95693 15.0293 8.9323 15.0131 8.90278L13.5253 6.17606C13.4205 5.97342 13.2694 5.79832 13.0843 5.66492C12.8993 5.53152 12.6854 5.44357 12.46 5.4082C12.2346 5.37282 12.004 5.39102 11.787 5.4613C11.5699 5.53159 11.3725 5.652 11.2106 5.81278L7.93594 9.11278C7.66083 9.39358 7.50467 9.7697 7.5 10.1628C7.5 10.9784 8.09063 11.269 8.36719 11.4331C9.70313 12.2028 10.6439 12.7657 11.16 13.0784C11.1874 13.0951 11.2101 13.1186 11.2259 13.1466C11.2416 13.1746 11.2499 13.2061 11.25 13.2382V16.4782C11.25 16.8818 11.5603 17.2282 11.9639 17.2484C12.0652 17.2533 12.1665 17.2376 12.2616 17.2022C12.3567 17.1668 12.4436 17.1125 12.517 17.0426C12.5905 16.9726 12.6491 16.8885 12.6891 16.7953C12.7291 16.7021 12.7499 16.6017 12.75 16.5003V12.469C12.7501 12.35 12.7218 12.2326 12.6675 12.1266C12.6132 12.0207 12.5345 11.9292 12.4378 11.8597L10.7034 10.6123C10.6817 10.5967 10.6635 10.5767 10.6501 10.5535C10.6367 10.5303 10.6285 10.5045 10.6259 10.4779C10.6233 10.4512 10.6265 10.4243 10.6352 10.399C10.6439 10.3737 10.6579 10.3505 10.6762 10.3311L12.645 8.23153C12.6652 8.20993 12.6902 8.1934 12.718 8.18331C12.7458 8.17322 12.7756 8.16984 12.8049 8.17345C12.8342 8.17706 12.8623 8.18756 12.8868 8.20409C12.9113 8.22062 12.9316 8.24271 12.9459 8.26856L13.9688 10.1145C14.0338 10.2315 14.1289 10.329 14.2443 10.3968C14.3597 10.4647 14.4911 10.5004 14.625 10.5003H17.25C17.3516 10.5004 17.4522 10.4799 17.5456 10.4399C17.639 10.4 17.7234 10.3415 17.7935 10.268C17.8636 10.1945 17.9181 10.1075 17.9536 10.0123C17.9891 9.91709 18.0049 9.81567 18 9.71418C17.9803 9.31059 17.6325 9.00028 17.2289 9.00028Z" fill="currentColor"/>
  </symbol>

  <symbol id="icon-run" viewBox="0 0 22 24">
    <path d="M15.4545 6C16.4587 6 17.2727 5.10457 17.2727 4C17.2727 2.89543 16.4587 2 15.4545 2C14.4504 2 13.6364 2.89543 13.6364 4C13.6364 5.10457 14.4504 6 15.4545 6Z" fill="currentColor"/>
    <path d="M14.3428 10.969C14.5514 11.311 14.8508 11.5742 15.2001 11.7227C15.5495 11.8712 15.9319 11.8978 16.2955 11.799L19.31 10.97L18.8709 9.02997L15.8564 9.85897L14.6027 7.79197C14.3349 7.35053 13.9192 7.04354 13.4464 6.93797L9.95002 6.16797C9.55888 6.08162 9.15277 6.13933 8.79441 6.33217C8.43606 6.52502 8.14539 6.84229 7.9673 7.23497L6.46002 10.551L8.08639 11.446L9.59366 8.12897L11.3818 8.52297L6.7582 17H2.72729V19H6.7582C7.39275 19 7.99002 18.628 8.3173 18.029L10.0609 14.833L14.76 15.867L16.4109 21.316L18.1346 20.683L16.4846 15.235C16.3827 14.9005 16.2026 14.6014 15.9622 14.3679C15.7219 14.1345 15.4298 13.9748 15.1155 13.905L12.3527 13.298L13.9637 10.344L14.3428 10.969Z" fill="currentColor"/>
  </symbol>

  <symbol id="icon-location" viewBox="0 0 21 21">
    <path d="M10.5 0C6.15169 0 2.625 3.52669 2.625 7.875C2.625 12.9334 6.42846 15.1449 7.26923 16.1538C9.28846 18.5769 9.40257 21 10.5 21C11.5974 21 11.7115 18.5769 13.7308 16.1538C14.5715 15.1449 18.375 12.9334 18.375 7.875C18.375 3.52669 14.8483 0 10.5 0ZM10.5 13.125C7.60069 13.125 5.25 10.7743 5.25 7.875C5.25 4.97569 7.60069 2.625 10.5 2.625C13.3993 2.625 15.75 4.97569 15.75 7.875C15.75 10.7743 13.3993 13.125 10.5 13.125ZM10.5 5.25C9.051 5.25 7.875 6.426 7.875 7.875C7.875 9.324 9.051 10.5 10.5 10.5C11.949 10.5 13.125 9.324 13.125 7.875C13.125 6.426 11.949 5.25 10.5 5.25Z" fill="#FFD74B"/>
    <ellipse cx="10.5" cy="7.875" rx="0.875001" ry="0.874999" fill="currentColor"/>
  </symbol>

  <symbol id="icon-businessman" viewBox="0 0 28 28">
    <path d="M23.3758 23.2418V19.8933C23.3758 18.9558 23.2418 18.0182 22.7061 17.0806C22.1703 16.143 21.5006 15.3394 20.5631 14.8036C19.6255 14.1339 17.6164 14 16.6788 14L14.5358 16.277L15.3394 18.0182V22.0364L14 23.5097L12.6606 22.0364V18.0182L13.5982 16.277L11.3212 14C10.2497 14 8.24063 14.1339 7.30306 14.8036C6.36548 15.3394 5.82972 16.143 5.29396 17.0806C4.75821 18.0182 4.62427 18.8218 4.62427 19.8933V23.2418C4.62427 23.2418 8.10669 24.7151 14 24.7151C19.8934 24.7151 23.3758 23.2418 23.3758 23.2418Z" fill="currentColor"/>
    <path d="M14 3.41895C11.4551 3.41895 9.98178 5.82985 10.3836 8.50864C10.7854 11.1874 12.1248 13.0626 14 13.0626C15.8751 13.0626 17.2145 11.1874 17.6163 8.50864C18.0181 5.69592 16.5448 3.41895 14 3.41895Z" fill="currentColor"/>
  </symbol>

  <symbol id="icon-minus" viewBox="0 0 20 2">
    <line y1="1" x2="20" y2="1" stroke="currentColor" stroke-width="2"/>
  </symbol>

  <symbol id="icon-plus" viewBox="0 0 20 20">
    <path d="M2 10H18M10 2V18" stroke="currentColor" stroke-linecap="round" stroke-width="2" fill="none"/>
  </symbol>

  <symbol id="icon-arrow-back" viewBox="0 0 15 21">
    <g>
      <path d="M11.8116 1.40061C11.713 1.28894 11.5958 1.20035 11.4668 1.1399C11.3378 1.07945 11.1994 1.04834 11.0598 1.04834C10.9201 1.04834 10.7818 1.07945 10.6528 1.1399C10.5238 1.20035 10.4066 1.28894 10.3079 1.40061L3.24844 9.37194C3.16968 9.46069 3.1072 9.5661 3.06457 9.68214C3.02194 9.79818 3 9.92258 3 10.0482C3 10.1738 3.02194 10.2982 3.06457 10.4143C3.1072 10.5303 3.16968 10.6357 3.24844 10.7245L10.3079 18.6958C10.7242 19.1658 11.3953 19.1658 11.8116 18.6958C12.2279 18.2258 11.883 17.7322 11.4668 17.2622L7.74854 13.0836L5.12914 10.0172L11.8207 2.30298C11.8207 2.30298 12.2279 1.86105 11.8116 1.40061Z" fill="currentColor"/>
    </g>
  </symbol>

  <symbol id="icon-arrow-next" viewBox="0 0 14 21">
    <g>
      <path d="M3.06949 19.3693C3.16815 19.481 3.28536 19.5695 3.41439 19.63C3.54343 19.6904 3.68176 19.7216 3.82146 19.7216C3.96117 19.7216 4.0995 19.6904 4.22853 19.63C4.35757 19.5695 4.47477 19.481 4.57344 19.3693L11.6343 11.398C11.7131 11.3092 11.7756 11.2038 11.8182 11.0878C11.8609 10.9717 11.8828 10.8473 11.8828 10.7217C11.8828 10.5961 11.8609 10.4717 11.8182 10.3556C11.7756 10.2396 11.7131 10.1342 11.6343 10.0454L4.57344 2.07408C4.15709 1.60405 3.48584 1.60405 3.06949 2.07408C2.65314 2.54411 3.32374 3.3591 3.74009 3.82913L9.82453 10.7217L3.41439 17.972C3.00654 18.4324 2.65314 18.9089 3.06949 19.3693Z" fill="currentColor"/>
    </g>
  </symbol>

  <symbol id="icon-check" viewBox="0 0 18 17">
    <path d="M7.38673 14.1809L3.99994 10.5V10V9C3.99994 8.95907 3.99994 9.04093 3.99994 9C3.99994 8.78516 4.00001 8.5 4.00001 8.5V7.5L7.3773 10.7561C7.49308 10.8776 7.68155 10.8761 7.79732 10.7547L15 3V5.07271V6C15 6.5 15 6.5 15 6.5L8.80833 13.1208L8.80968 13.1222L7.80675 14.1795C7.69097 14.3009 7.5025 14.3009 7.38673 14.1809Z" fill="currentColor"/>
  </symbol>

  <symbol id="icon-close" viewBox="0 0 9 9">
    <path d="M7.875 1.125L1.125 7.875M1.125 1.125L7.875 7.875"
          stroke="currentColor" stroke-linecap="round" stroke-width="1.5" fill="none" stroke-opacity="1" vector-effect="non-scaling-stroke"/>
  </symbol>

  <symbol id="icon-arrow-dropdown" viewBox="0 0 12 16">
    <g>
      <path d="M0.63847 5.09805C0.56899 5.17667 0.513866 5.27007 0.476254 5.37289C0.438641 5.47571 0.419281 5.58595 0.419281 5.69727C0.419281 5.8086 0.438641 5.91883 0.476254 6.02165C0.513866 6.12448 0.56899 6.21787 0.63847 6.29649L5.59841 11.9231C5.65363 11.9859 5.71922 12.0357 5.79142 12.0696C5.86363 12.1036 5.94103 12.1211 6.0192 12.1211C6.09737 12.1211 6.17478 12.1036 6.24698 12.0696C6.31918 12.0357 6.38477 11.9859 6.43999 11.9231L11.3999 6.29649C11.6924 5.96472 11.6924 5.42982 11.3999 5.09805C11.1075 4.76628 10.8004 5.04112 10.5079 5.37289L7.9079 8.3364L5.99993 10.4241L1.19995 5.09079C1.19995 5.09079 0.924965 4.76628 0.63847 5.09805Z" fill="currentColor"/>
    </g>
  </symbol>

</svg>
